<svg width="1100" height="720" viewBox="0 0 1100 720" fill="none" xmlns="http://www.w3.org/2000/svg">
  <rect width="1100" height="720" fill="#171717"/>
  <rect x="46" y="46" width="1008" height="628" fill="#FFF9EF" stroke="#252525" stroke-width="4"/>
  <rect x="80" y="80" width="940" height="54" fill="#252525"/>
  <text x="106" y="116" fill="#FFF9EF" font-family="Arial, sans-serif" font-size="24" font-weight="900" letter-spacing="3">OKIPOKA LOCAL POKER INDEX</text>
  <g transform="translate(92 176)">
    <rect width="290" height="190" fill="#F4E9D8" stroke="#252525" stroke-width="3"/>
    <path d="M42 54H248M42 96H248M42 138H190" stroke="#252525" stroke-width="8" stroke-linecap="square"/>
    <rect x="42" y="34" width="74" height="18" fill="#FF6B00"/>
    <rect x="42" y="118" width="46" height="18" fill="#FF6B00"/>
    <text x="42" y="170" fill="#5F554A" font-family="Arial, sans-serif" font-size="17" font-weight="900">TOURNAMENTS</text>
  </g>
  <g transform="translate(405 176)">
    <rect width="290" height="190" fill="#FFFFFF" stroke="#252525" stroke-width="3"/>
    <path d="M64 48L226 48L194 144L96 144L64 48Z" fill="#2A6B4F" stroke="#252525" stroke-width="4"/>
    <circle cx="115" cy="86" r="14" fill="#FF6B00"/>
    <circle cx="152" cy="108" r="14" fill="#FFF9EF" stroke="#252525" stroke-width="3"/>
    <circle cx="184" cy="84" r="14" fill="#FF6B00"/>
    <text x="78" y="170" fill="#5F554A" font-family="Arial, sans-serif" font-size="17" font-weight="900">POKER ROOMS</text>
  </g>
  <g transform="translate(718 176)">
    <rect width="290" height="190" fill="#F4E9D8" stroke="#252525" stroke-width="3"/>
    <rect x="52" y="48" width="78" height="94" rx="6" fill="#FFFFFF" stroke="#252525" stroke-width="4"/>
    <rect x="92" y="48" width="78" height="94" rx="6" fill="#FFFFFF" stroke="#252525" stroke-width="4"/>
    <rect x="132" y="48" width="78" height="94" rx="6" fill="#FFFFFF" stroke="#252525" stroke-width="4"/>
    <circle cx="92" cy="94" r="13" fill="#FF6B00"/>
    <path d="M126 86L138 102L154 78" stroke="#252525" stroke-width="5" stroke-linecap="round" stroke-linejoin="round"/>
    <path d="M172 80H198M172 100H198" stroke="#FF6B00" stroke-width="6" stroke-linecap="square"/>
    <text x="76" y="170" fill="#5F554A" font-family="Arial, sans-serif" font-size="17" font-weight="900">PLAYER PHOTOS</text>
  </g>
  <path d="M118 430H982" stroke="#D8CBB7" stroke-width="3" stroke-dasharray="12 12"/>
  <g transform="translate(118 474)">
    <rect width="214" height="92" fill="#252525"/>
    <text x="22" y="38" fill="#FF6B00" font-family="Arial, sans-serif" font-size="20" font-weight="900">TODAY</text>
    <text x="22" y="68" fill="#FFF9EF" font-family="Arial, sans-serif" font-size="22" font-weight="900">SCHEDULE</text>
  </g>
  <g transform="translate(362 474)">
    <rect width="214" height="92" fill="#FF6B00"/>
    <text x="22" y="38" fill="#171717" font-family="Arial, sans-serif" font-size="20" font-weight="900">AREA</text>
    <text x="22" y="68" fill="#171717" font-family="Arial, sans-serif" font-size="22" font-weight="900">GUIDE</text>
  </g>
  <g transform="translate(606 474)">
    <rect width="214" height="92" fill="#252525"/>
    <text x="22" y="38" fill="#FF6B00" font-family="Arial, sans-serif" font-size="20" font-weight="900">EVENT</text>
    <text x="22" y="68" fill="#FFF9EF" font-family="Arial, sans-serif" font-size="22" font-weight="900">MEMORY</text>
  </g>
  <circle cx="910" cy="520" r="46" fill="#FF6B00"/>
  <path d="M890 520H930M910 500V540" stroke="#171717" stroke-width="9" stroke-linecap="square"/>
</svg>
