<svg xmlns="http://www.w3.org/2000/svg" viewBox="0 0 48 48" id="map">
  <path d="M7.36 26.14 3.64 45.72c-.11.56.12 1.14.58 1.48.26.2.58.3.9.3.24 0 .47-.06.69-.17L14.17 43l9.19 4.35c.41.19.88.19 1.29 0L33.83 43l8.36 4.33a1.5 1.5 0 0 0 1.59-.13c.46-.34.68-.92.58-1.48l-3.73-19.58a1.47 1.47 0 0 0-.77-1.04c-1.56-.84-3.04-1.5-4.53-2.06 1.44-2.8 2.45-5.8 2.45-8.76C37.78 6.68 31.6.5 24 .5S10.22 6.68 10.22 14.28c0 2.95 1 5.94 2.43 8.73-2.62 1.01-4.47 2.06-4.56 2.11-.38.21-.65.59-.73 1.02zM24 3.5c5.94 0 10.78 4.84 10.78 10.78 0 7.42-7.94 15.8-10.78 18.56-2.84-2.76-10.78-11.14-10.78-18.56C13.22 8.34 18.06 3.5 24 3.5zm-9.83 22.14c3.64 5.74 8.52 10.09 8.84 10.38.28.25.64.38.99.38s.71-.13.99-.38c.32-.29 5.18-4.62 8.82-10.34 1.33.47 2.64 1.03 4.01 1.73l3.01 15.84L34.55 40c-.42-.21-.91-.23-1.33-.02L24 44.34l-9.22-4.37c-.42-.2-.92-.19-1.33.02l-6.29 3.25 3.01-15.85c.77-.39 2.23-1.09 4-1.75z"></path>
  <path d="M32.4 14.28c0-4.63-3.77-8.4-8.4-8.4s-8.4 3.77-8.4 8.4 3.77 8.4 8.4 8.4 8.4-3.77 8.4-8.4zm-13.8 0c0-2.98 2.42-5.4 5.4-5.4s5.4 2.42 5.4 5.4c0 2.98-2.42 5.4-5.4 5.4s-5.4-2.42-5.4-5.4z"></path>
</svg>
